<?xml version="1.0" encoding="UTF-8"?>
<svg id="Base" xmlns="http://www.w3.org/2000/svg" version="1.1" xmlns:xlink="http://www.w3.org/1999/xlink" viewBox="0 0 186.11 3.6">
  <!-- Generator: Adobe Illustrator 29.4.0, SVG Export Plug-In . SVG Version: 2.1.0 Build 152)  -->
  <defs>
    <style>
      .st0 {
        fill: #ffd564;
      }

      .st1 {
        fill: url(#linear-gradient1);
      }

      .st2 {
        fill: url(#linear-gradient);
      }
    </style>
    <linearGradient id="linear-gradient" x1="0" y1="1.8" x2="186.11" y2="1.8" gradientUnits="userSpaceOnUse">
      <stop offset=".1" stop-color="#601d00"/>
      <stop offset=".39" stop-color="#8b3300"/>
      <stop offset=".62" stop-color="#a64100"/>
      <stop offset=".76" stop-color="#b14700"/>
    </linearGradient>
    <linearGradient id="linear-gradient1" x1="0" y1="1.8" x2=".56" y2="1.8" gradientUnits="userSpaceOnUse">
      <stop offset="0" stop-color="#00bad6"/>
      <stop offset="0" stop-color="#09bad1"/>
      <stop offset=".03" stop-color="#37bfbd"/>
      <stop offset=".06" stop-color="#62c4aa"/>
      <stop offset=".1" stop-color="#87c899"/>
      <stop offset=".13" stop-color="#a8cb8a"/>
      <stop offset=".18" stop-color="#c3ce7e"/>
      <stop offset=".22" stop-color="#d9d174"/>
      <stop offset=".27" stop-color="#ead26d"/>
      <stop offset=".34" stop-color="#f6d467"/>
      <stop offset=".43" stop-color="#fdd464"/>
      <stop offset=".69" stop-color="#ffd564"/>
    </linearGradient>
  </defs>
  <path class="st2" d="M186.11.9c0,.05,0,1.75,0,1.84,0,.05-.07.14-.12.14S0,3.6,0,3.6V0l185.93.71s.18.14.18.19Z"/>
  <polygon class="st0" points="83.15 2.87 83.15 .72 89.27 1.8 83.15 2.87"/>
  <polygon class="st0" points="89.65 2.87 89.65 .72 96.12 1.8 89.65 2.87"/>
  <polygon class="st0" points="96.48 2.87 96.48 .71 102.96 1.8 96.48 2.87"/>
  <rect x="183.6" y=".71" width="1.08" height="2.18"/>
  <path class="st0" d="M186.11,2.76c0-.12,0-1.97,0-1.91s.03-.13-.18-.14-1.25,0-1.25,0v2.18s1.3,0,1.32,0,.11,0,.11-.12Z"/>
  <polygon class="st1" points=".36 3.6 0 3.6 0 0 .36 0 .56 1.03 .56 2.56 .36 3.6"/>
</svg>